<svg xmlns="http://www.w3.org/2000/svg" xmlns:xlink="http://www.w3.org/1999/xlink" contentStyleType="text/css" height="750px" preserveAspectRatio="none" style="width:693px;height:750px;background:#FFFFFF;" version="1.1" viewBox="0 0 693 750" width="693px" zoomAndPan="magnify"><title>UC-002 &#8212; Suite evaluation and baseline regression decision</title><defs/><g><text fill="#000000" font-family="sans-serif" font-size="14" font-weight="bold" lengthAdjust="spacing" textLength="474.1816" x="102.574" y="22.9951">UC-002 &#8212; Suite evaluation and baseline regression decision</text><!--cluster Behavioral Eval suite--><g id="cluster_Behavioral Eval suite"><rect fill="none" height="589.89" rx="2.5" ry="2.5" style="stroke:#181818;stroke-width:1.0;" width="314" x="7" y="154.5769"/><text fill="#000000" font-family="sans-serif" font-size="14" font-weight="bold" lengthAdjust="spacing" textLength="166.2432" x="80.8784" y="169.572">Behavioral Eval suite</text></g><g id="elem_Choose"><ellipse cx="169.9979" cy="217.2325" fill="#F1F1F1" rx="126.3279" ry="27.6656" style="stroke:#181818;stroke-width:0.5;"/><text fill="#000000" font-family="sans-serif" font-size="14" lengthAdjust="spacing" textLength="220.8076" x="59.5941" y="220.0791">Choose case suite and baseline</text></g><g id="elem_Run"><ellipse cx="170.0018" cy="341.7952" fill="#F1F1F1" rx="120.0418" ry="26.4084" style="stroke:#181818;stroke-width:0.5;"/><text fill="#000000" font-family="sans-serif" font-size="14" lengthAdjust="spacing" textLength="207.4434" x="66.2801" y="344.6419">Run each case independently</text></g><g id="elem_Aggregate"><ellipse cx="164.003" cy="466.3595" fill="#F1F1F1" rx="141.313" ry="30.6626" style="stroke:#181818;stroke-width:0.5;"/><text fill="#000000" font-family="sans-serif" font-size="14" lengthAdjust="spacing" textLength="203.9229" x="62.0416" y="461.0577">Aggregate pass rate, quality,</text><text fill="#000000" font-family="sans-serif" font-size="14" lengthAdjust="spacing" textLength="211.5244" x="58.2408" y="477.3546">inconclusive health, efficiency</text></g><g id="elem_Decide"><ellipse cx="169.001" cy="593.7211" fill="#F1F1F1" rx="134.071" ry="29.2142" style="stroke:#181818;stroke-width:0.5;"/><text fill="#000000" font-family="sans-serif" font-size="14" lengthAdjust="spacing" textLength="191.8438" x="70.0791" y="589.3202">Compare with baseline and</text><text fill="#000000" font-family="sans-serif" font-size="14" lengthAdjust="spacing" textLength="155.1211" x="88.4404" y="605.6171">apply suite thresholds</text></g><g id="elem_Result"><ellipse cx="168.999" cy="705.6947" fill="#F1F1F1" rx="101.839" ry="22.7678" style="stroke:#181818;stroke-width:0.5;"/><text fill="#000000" font-family="sans-serif" font-size="14" lengthAdjust="spacing" textLength="168.1025" x="84.9478" y="708.5414">Decide suite pass or fail</text></g><g id="elem_N"><path d="M294.56,68.3769 L294.56,93.5097 L453.4438,93.5097 L453.4438,78.3769 L443.4438,68.3769 L294.56,68.3769 " fill="#FEFFDD" style="stroke:#181818;stroke-width:0.5;"/><path d="M443.4438,68.3769 L443.4438,78.3769 L453.4438,78.3769 L443.4438,68.3769 " fill="#FEFFDD" style="stroke:#181818;stroke-width:1.0;"/><text fill="#000000" font-family="sans-serif" font-size="13" lengthAdjust="spacing" textLength="137.8838" x="300.56" y="85.4438">Product Spec UC-002</text></g><!--entity Maintainer--><g id="elem_Maintainer"><ellipse cx="169.9979" cy="51.2969" fill="#F1F1F1" rx="8" ry="8" style="stroke:#181818;stroke-width:0.5;"/><path d="M169.9979,59.2969 L169.9979,86.2969 M156.9979,67.2969 L182.9979,67.2969 M169.9979,86.2969 L156.9979,101.2969 M169.9979,86.2969 L182.9979,101.2969 " fill="none" style="stroke:#181818;stroke-width:0.5;"/><text fill="#000000" font-family="sans-serif" font-size="14" lengthAdjust="spacing" textLength="178.5957" x="80.7" y="115.792">workflow maintainer/user</text></g><!--entity Harness--><g id="elem_Harness"><ellipse cx="365.0011" cy="187.5969" fill="#F1F1F1" rx="8" ry="8" style="stroke:#181818;stroke-width:0.5;"/><path d="M365.0011,195.5969 L365.0011,222.5969 M352.0011,203.5969 L378.0011,203.5969 M365.0011,222.5969 L352.0011,237.5969 M365.0011,222.5969 L378.0011,237.5969 " fill="none" style="stroke:#181818;stroke-width:0.5;"/><text fill="#000000" font-family="sans-serif" font-size="14" lengthAdjust="spacing" textLength="55.2822" x="337.36" y="252.092">harness</text></g><!--entity Evaluator--><g id="elem_Evaluator"><ellipse cx="406.0016" cy="436.7069" fill="#F1F1F1" rx="8" ry="8" style="stroke:#181818;stroke-width:0.5;"/><path d="M406.0016,444.7069 L406.0016,471.7069 M393.0016,452.7069 L419.0016,452.7069 M406.0016,471.7069 L393.0016,486.7069 M406.0016,471.7069 L419.0016,486.7069 " fill="none" style="stroke:#181818;stroke-width:0.5;"/><text fill="#000000" font-family="sans-serif" font-size="14" lengthAdjust="spacing" textLength="132.3232" x="339.84" y="501.202">evaluator/reviewer</text></g><g id="elem_GMN20"><path d="M337.67,566.0169 L337.67,589.7169 L303.32,593.7169 L337.67,597.7169 L337.67,621.4153 A0,0 0 0 0 337.67,621.4153 L686.3297,621.4153 A0,0 0 0 0 686.3297,621.4153 L686.3297,576.0169 L676.3297,566.0169 L337.67,566.0169 A0,0 0 0 0 337.67,566.0169 " fill="#FEFFDD" style="stroke:#181818;stroke-width:0.5;"/><path d="M676.3297,566.0169 L676.3297,576.0169 L686.3297,576.0169 L676.3297,566.0169 " fill="#FEFFDD" style="stroke:#181818;stroke-width:0.5;"/><text fill="#000000" font-family="sans-serif" font-size="13" lengthAdjust="spacing" textLength="182.5967" x="343.67" y="583.0838">Includes hard_gate_failures,</text><text fill="#000000" font-family="sans-serif" font-size="13" lengthAdjust="spacing" textLength="164.8423" x="343.67" y="598.2166">critical pass rate, quality,</text><text fill="#000000" font-family="sans-serif" font-size="13" lengthAdjust="spacing" textLength="327.6597" x="343.67" y="613.3494">inconclusive health, token and latency regression.</text></g><!--link Maintainer to Choose--><g id="link_Maintainer_Choose"><path d="M170,119.3569 C170,141.5469 170,163.1769 170,183.2469 " fill="none" id="Maintainer-to-Choose" style="stroke:#181818;stroke-width:1.0;"/><polygon fill="#181818" points="170,189.2469,174,180.2469,170,184.2469,166,180.2469,170,189.2469" style="stroke:#181818;stroke-width:1.0;"/></g><!--link Choose to Run--><g id="link_Choose_Run"><path d="M170,245.1369 C170,265.9969 170,288.7069 170,309.2269 " fill="none" id="Choose-to-Run" style="stroke:#181818;stroke-width:1.0;"/><polygon fill="#181818" points="170,315.2269,174,306.2269,170,310.2269,166,306.2269,170,315.2269" style="stroke:#181818;stroke-width:1.0;"/></g><!--link Harness to Run--><g id="link_Harness_Run"><path d="M337.22,243.0269 C331.96,247.3269 326.42,251.6169 321,255.3869 C287.63,278.6169 252.7694,298.3021 222.2594,314.3621 " fill="none" id="Harness-to-Run" style="stroke:#181818;stroke-width:1.0;"/><polygon fill="#181818" points="216.95,317.1569,226.7772,316.5043,221.3745,314.8279,223.0509,309.4252,216.95,317.1569" style="stroke:#181818;stroke-width:1.0;"/></g><!--link Run to Aggregate--><g id="link_Run_Aggregate"><path d="M168.74,368.4869 C167.79,388.0069 166.7625,408.894 165.7625,429.384 " fill="none" id="Run-to-Aggregate" style="stroke:#181818;stroke-width:1.0;"/><polygon fill="#181818" points="165.47,435.3769,169.904,426.5826,165.7137,430.3828,161.9135,426.1926,165.47,435.3769" style="stroke:#181818;stroke-width:1.0;"/></g><!--link Harness to Aggregate--><g id="link_Harness_Aggregate"><path d="M357.52,255.6369 C349.56,288.0769 334.39,334.9169 308,368.2069 C284.77,397.5069 255.4806,418.2596 226.0706,434.9196 " fill="none" id="Harness-to-Aggregate" style="stroke:#181818;stroke-width:1.0;"/><polygon fill="#181818" points="220.85,437.8769,230.6524,436.9213,225.2005,435.4124,226.7093,429.9605,220.85,437.8769" style="stroke:#181818;stroke-width:1.0;"/></g><!--link Aggregate to Decide--><g id="link_Aggregate_Decide"><path d="M165.2,497.3769 C166.01,517.6669 166.8326,538.2816 167.6226,558.2316 " fill="none" id="Aggregate-to-Decide" style="stroke:#181818;stroke-width:1.0;"/><polygon fill="#181818" points="167.86,564.2269,171.5008,555.0757,167.6622,559.2308,163.507,555.3922,167.86,564.2269" style="stroke:#181818;stroke-width:1.0;"/></g><!--link Evaluator to Decide--><g id="link_Evaluator_Decide"><path d="M339.35,502.6069 C301.15,522.8169 259.3039,544.9518 224.3039,563.4618 " fill="none" id="Evaluator-to-Decide" style="stroke:#181818;stroke-width:1.0;"/><polygon fill="#181818" points="219,566.2669,228.8259,565.5953,223.42,563.9294,225.0859,558.5234,219,566.2669" style="stroke:#181818;stroke-width:1.0;"/></g><!--link Decide to Result--><g id="link_Decide_Result"><path d="M169,623.3269 C169,641.7869 169,659.4369 169,676.4769 " fill="none" id="Decide-to-Result" style="stroke:#181818;stroke-width:1.0;"/><polygon fill="#181818" points="169,682.4769,173,673.4769,169,677.4769,165,673.4769,169,682.4769" style="stroke:#181818;stroke-width:1.0;"/></g><!--SRC=[RLFRQjmm47tNLmn-tcr2Fo3GfeNaeQKqv2qGflBO6g98hYwxBANGZ-WNzaiwahMs5_9WF9hBqPmveyJ94ZpUxg-ltyE_Ft_X8NCYe0FQZ8cz0tGz_C18bXr1e35GZCNVa-PYAEUb02DyLT-2xxDEy32HRfYAfBnaADJ91-YEFhmCrX_X5Tab-IXSvKYXAn1V5bzBDnYSt5TYTxDvncaT-d0LwC1qR0YVpsuLI2Tqex3hFfB10_k0jiOX5euT_580ShKMSj3T6k_bNmyrVa6yOiyfswBlsG6XDdCPkvucuKiksLEjaFWs_SCeqnjHi2SKKa6i7VpCQ3cTTa-EdVPEsnpvG608RJ8xe65WpUJqZBX0NFJkNoSC14TEPjLA-dzoE4tsr0Wb8zePR_jOeJw9WFq5pknfsRL5cVI0R6So5BDDwhTQLOBz_kOybZR0uYcqcrpBkOogs2k1RSRgNMTK_At7HTMjitLRBvXRgviOU3G9_71EkoyZxIcMNUgV2_9pePHb5Zkb0oVMiX9l2ABUr2Fv5veVXPLiaMNp9jujs_uV]--></g></svg>