<svg xmlns="http://www.w3.org/2000/svg" xmlns:xlink="http://www.w3.org/1999/xlink" contentStyleType="text/css" height="562px" preserveAspectRatio="none" style="width:517px;height:562px;background:#FFFFFF;" version="1.1" viewBox="0 0 517 562" width="517px" zoomAndPan="magnify"><title>UC-002 &#8212; Suite evaluation and baseline regression decision</title><defs/><g><text fill="#000000" font-family="sans-serif" font-size="14" font-weight="bold" lengthAdjust="spacing" textLength="474.1816" x="20" y="32.9951">UC-002 &#8212; Suite evaluation and baseline regression decision</text><ellipse cx="258.5908" cy="57.2969" fill="#222222" rx="10" ry="10" style="stroke:#222222;stroke-width:1.0;"/><rect fill="#F1F1F1" height="33.9688" rx="12.5" ry="12.5" style="stroke:#181818;stroke-width:0.5;" width="303.5938" x="106.7939" y="87.2969"/><text fill="#000000" font-family="sans-serif" font-size="12" lengthAdjust="spacing" textLength="283.5938" x="116.7939" y="108.4355">Maintainer selects suite and identified baseline</text><rect fill="#F1F1F1" height="33.9688" rx="12.5" ry="12.5" style="stroke:#181818;stroke-width:0.5;" width="226.7715" x="145.2051" y="141.2656"/><text fill="#000000" font-family="sans-serif" font-size="12" lengthAdjust="spacing" textLength="206.7715" x="155.2051" y="162.4043">Harness runs cases independently</text><rect fill="#F1F1F1" height="33.9688" rx="12.5" ry="12.5" style="stroke:#181818;stroke-width:0.5;" width="280.5195" x="118.3311" y="195.2344"/><text fill="#000000" font-family="sans-serif" font-size="12" lengthAdjust="spacing" textLength="260.5195" x="128.3311" y="216.373">Aggregate conclusive pass rate and quality</text><rect fill="#F1F1F1" height="33.9688" rx="12.5" ry="12.5" style="stroke:#181818;stroke-width:0.5;" width="202.5254" x="157.3281" y="249.2031"/><text fill="#000000" font-family="sans-serif" font-size="12" lengthAdjust="spacing" textLength="182.5254" x="167.3281" y="270.3418">Aggregate inconclusive health</text><rect fill="#F1F1F1" height="33.9688" rx="12.5" ry="12.5" style="stroke:#181818;stroke-width:0.5;" width="270.0605" x="123.5605" y="303.1719"/><text fill="#000000" font-family="sans-serif" font-size="12" lengthAdjust="spacing" textLength="250.0605" x="133.5605" y="324.3105">Measure efficiency and compare baseline</text><rect fill="#F1F1F1" height="33.9688" rx="12.5" ry="12.5" style="stroke:#181818;stroke-width:0.5;" width="242.6387" x="137.2715" y="357.1406"/><text fill="#000000" font-family="sans-serif" font-size="12" lengthAdjust="spacing" textLength="222.6387" x="147.2715" y="378.2793">Evaluator applies P0 suite thresholds</text><polygon fill="#F1F1F1" points="193.3428,411.1094,323.8389,411.1094,335.8389,423.1094,323.8389,435.1094,193.3428,435.1094,181.3428,423.1094,193.3428,411.1094" style="stroke:#181818;stroke-width:0.5;"/><text fill="#000000" font-family="sans-serif" font-size="11" lengthAdjust="spacing" textLength="130.4961" x="193.3428" y="426.9175">All thresholds satisfied?</text><text fill="#000000" font-family="sans-serif" font-size="11" lengthAdjust="spacing" textLength="19.0083" x="162.3345" y="420.5151">yes</text><text fill="#000000" font-family="sans-serif" font-size="11" lengthAdjust="spacing" textLength="13.7017" x="335.8389" y="420.5151">no</text><rect fill="#F1F1F1" height="33.9688" rx="12.5" ry="12.5" style="stroke:#181818;stroke-width:0.5;" width="117.957" x="112.3643" y="445.1094"/><text fill="#000000" font-family="sans-serif" font-size="12" lengthAdjust="spacing" textLength="97.957" x="122.3643" y="466.248">Set suite = pass</text><rect fill="#F1F1F1" height="33.9688" rx="12.5" ry="12.5" style="stroke:#181818;stroke-width:0.5;" width="108.7285" x="291.4746" y="445.1094"/><text fill="#000000" font-family="sans-serif" font-size="12" lengthAdjust="spacing" textLength="88.7285" x="301.4746" y="466.248">Set suite = fail</text><polygon fill="#F1F1F1" points="258.5908,485.0781,270.5908,497.0781,258.5908,509.0781,246.5908,497.0781,258.5908,485.0781" style="stroke:#181818;stroke-width:0.5;"/><ellipse cx="258.5908" cy="540.0781" fill="none" rx="11" ry="11" style="stroke:#222222;stroke-width:1.0;"/><ellipse cx="258.5908" cy="540.0781" fill="#222222" rx="6" ry="6" style="stroke:#222222;stroke-width:1.0;"/><line style="stroke:#181818;stroke-width:1.0;" x1="258.5908" x2="258.5908" y1="67.2969" y2="87.2969"/><polygon fill="#181818" points="254.5908,77.2969,258.5908,87.2969,262.5908,77.2969,258.5908,81.2969" style="stroke:#181818;stroke-width:1.0;"/><line style="stroke:#181818;stroke-width:1.0;" x1="258.5908" x2="258.5908" y1="121.2656" y2="141.2656"/><polygon fill="#181818" points="254.5908,131.2656,258.5908,141.2656,262.5908,131.2656,258.5908,135.2656" style="stroke:#181818;stroke-width:1.0;"/><line style="stroke:#181818;stroke-width:1.0;" x1="258.5908" x2="258.5908" y1="175.2344" y2="195.2344"/><polygon fill="#181818" points="254.5908,185.2344,258.5908,195.2344,262.5908,185.2344,258.5908,189.2344" style="stroke:#181818;stroke-width:1.0;"/><line style="stroke:#181818;stroke-width:1.0;" x1="258.5908" x2="258.5908" y1="229.2031" y2="249.2031"/><polygon fill="#181818" points="254.5908,239.2031,258.5908,249.2031,262.5908,239.2031,258.5908,243.2031" style="stroke:#181818;stroke-width:1.0;"/><line style="stroke:#181818;stroke-width:1.0;" x1="258.5908" x2="258.5908" y1="283.1719" y2="303.1719"/><polygon fill="#181818" points="254.5908,293.1719,258.5908,303.1719,262.5908,293.1719,258.5908,297.1719" style="stroke:#181818;stroke-width:1.0;"/><line style="stroke:#181818;stroke-width:1.0;" x1="258.5908" x2="258.5908" y1="337.1406" y2="357.1406"/><polygon fill="#181818" points="254.5908,347.1406,258.5908,357.1406,262.5908,347.1406,258.5908,351.1406" style="stroke:#181818;stroke-width:1.0;"/><line style="stroke:#181818;stroke-width:1.0;" x1="181.3428" x2="171.3428" y1="423.1094" y2="423.1094"/><line style="stroke:#181818;stroke-width:1.0;" x1="171.3428" x2="171.3428" y1="423.1094" y2="445.1094"/><polygon fill="#181818" points="167.3428,435.1094,171.3428,445.1094,175.3428,435.1094,171.3428,439.1094" style="stroke:#181818;stroke-width:1.0;"/><line style="stroke:#181818;stroke-width:1.0;" x1="335.8389" x2="345.8389" y1="423.1094" y2="423.1094"/><line style="stroke:#181818;stroke-width:1.0;" x1="345.8389" x2="345.8389" y1="423.1094" y2="445.1094"/><polygon fill="#181818" points="341.8389,435.1094,345.8389,445.1094,349.8389,435.1094,345.8389,439.1094" style="stroke:#181818;stroke-width:1.0;"/><line style="stroke:#181818;stroke-width:1.0;" x1="171.3428" x2="171.3428" y1="479.0781" y2="497.0781"/><line style="stroke:#181818;stroke-width:1.0;" x1="171.3428" x2="246.5908" y1="497.0781" y2="497.0781"/><polygon fill="#181818" points="236.5908,493.0781,246.5908,497.0781,236.5908,501.0781,240.5908,497.0781" style="stroke:#181818;stroke-width:1.0;"/><line style="stroke:#181818;stroke-width:1.0;" x1="345.8389" x2="345.8389" y1="479.0781" y2="497.0781"/><line style="stroke:#181818;stroke-width:1.0;" x1="345.8389" x2="270.5908" y1="497.0781" y2="497.0781"/><polygon fill="#181818" points="280.5908,493.0781,270.5908,497.0781,280.5908,501.0781,276.5908,497.0781" style="stroke:#181818;stroke-width:1.0;"/><line style="stroke:#181818;stroke-width:1.0;" x1="258.5908" x2="258.5908" y1="391.1094" y2="411.1094"/><polygon fill="#181818" points="254.5908,401.1094,258.5908,411.1094,262.5908,401.1094,258.5908,405.1094" style="stroke:#181818;stroke-width:1.0;"/><line style="stroke:#181818;stroke-width:1.0;" x1="258.5908" x2="258.5908" y1="509.0781" y2="529.0781"/><polygon fill="#181818" points="254.5908,519.0781,258.5908,529.0781,262.5908,519.0781,258.5908,523.0781" style="stroke:#181818;stroke-width:1.0;"/><!--SRC=[PP31IiH038RlVOeSTmz2yRYBo2A2bmLXyG7YD6q3CLCdwK9lFeHFw9EOre8L3mF3___pJVuukn2yFDpKzIryVNp2PMGde2lAYCvP0RM1LpGILe92NI6pMMyeyNofpB5uTJWZgyUX0X6cv0Qsi6O0DwJEBTClwrWTdh1eqA2CQf12Ds1jQ22Tup95vDJ5Xnq69cLDCXfV2GQS7-7AVXzHsF-6MJVndb2y3_zCQ6E9TctBYKdJj01IVXimvCraZp_zSm4S1k4OxBbUwtWV6-YpD7Qik8NTIMIZWSNMR2vwlm-P57OJsRu2E5p8LyJTqk1OaHZ1JlC_kqMMiBNXDjQRXsy0]--></g></svg>