<svg xmlns="http://www.w3.org/2000/svg" xmlns:xlink="http://www.w3.org/1999/xlink" contentStyleType="text/css" height="643px" preserveAspectRatio="none" style="width:771px;height:643px;background:#FFFFFF;" version="1.1" viewBox="0 0 771 643" width="771px" zoomAndPan="magnify"><title>UC-003 &#8212; Evidence and failure diagnosis</title><defs/><g><text fill="#000000" font-family="sans-serif" font-size="14" font-weight="bold" lengthAdjust="spacing" textLength="322.0889" x="217.4562" y="22.9951">UC-003 &#8212; Evidence and failure diagnosis</text><!--cluster Evidence and failure diagnosis--><g id="cluster_Evidence and failure diagnosis"><rect fill="none" height="484.07" rx="2.5" ry="2.5" style="stroke:#181818;stroke-width:1.0;" width="340" x="72.32" y="153.4469"/><text fill="#000000" font-family="sans-serif" font-size="14" font-weight="bold" lengthAdjust="spacing" textLength="241.6641" x="121.488" y="168.442">Evidence and failure diagnosis</text></g><g id="elem_Select"><ellipse cx="231.316" cy="217.2401" fill="#F1F1F1" rx="131.966" ry="28.7932" style="stroke:#181818;stroke-width:0.5;"/><text fill="#000000" font-family="sans-serif" font-size="14" lengthAdjust="spacing" textLength="232.7227" x="114.9546" y="220.0867">Select failed or inconclusive case</text></g><g id="elem_Inspect"><ellipse cx="242.3212" cy="348.5211" fill="#F1F1F1" rx="153.6212" ry="33.1242" style="stroke:#181818;stroke-width:0.5;"/><text fill="#000000" font-family="sans-serif" font-size="14" lengthAdjust="spacing" textLength="241.2813" x="120.0401" y="343.7293">Inspect trajectory and normalized,</text><text fill="#000000" font-family="sans-serif" font-size="14" lengthAdjust="spacing" textLength="145.3525" x="168.0045" y="360.0261">replayable recording</text></g><g id="elem_Violation"><ellipse cx="248.3241" cy="470.9477" fill="#F1F1F1" rx="134.5541" ry="29.3108" style="stroke:#181818;stroke-width:0.5;"/><text fill="#000000" font-family="sans-serif" font-size="14" lengthAdjust="spacing" textLength="193.1221" x="148.763" y="466.5468">Inspect hard_gate_violation</text><text fill="#000000" font-family="sans-serif" font-size="14" lengthAdjust="spacing" textLength="130.0879" x="180.2801" y="482.8437">event and reasons</text></g><g id="elem_Classify"><ellipse cx="239.3172" cy="590.8863" fill="#F1F1F1" rx="141.1472" ry="30.6294" style="stroke:#181818;stroke-width:0.5;"/><text fill="#000000" font-family="sans-serif" font-size="14" lengthAdjust="spacing" textLength="210.2461" x="131.1942" y="586.4854">Classify valid observed failure</text><text fill="#000000" font-family="sans-serif" font-size="14" lengthAdjust="spacing" textLength="163.9326" x="154.3509" y="602.7823">or insufficient evidence</text></g><g id="elem_N"><path d="M234.88,68.3769 L234.88,93.5097 L393.7638,93.5097 L393.7638,78.3769 L383.7638,68.3769 L234.88,68.3769 " fill="#FEFFDD" style="stroke:#181818;stroke-width:0.5;"/><path d="M383.7638,68.3769 L383.7638,78.3769 L393.7638,78.3769 L383.7638,68.3769 " fill="#FEFFDD" style="stroke:#181818;stroke-width:1.0;"/><text fill="#000000" font-family="sans-serif" font-size="13" lengthAdjust="spacing" textLength="137.8838" x="240.88" y="85.4438">Product Spec UC-003</text></g><!--entity Evaluator--><g id="elem_Evaluator"><ellipse cx="133.3216" cy="51.2969" fill="#F1F1F1" rx="8" ry="8" style="stroke:#181818;stroke-width:0.5;"/><path d="M133.3216,59.2969 L133.3216,86.2969 M120.3216,67.2969 L146.3216,67.2969 M133.3216,86.2969 L120.3216,101.2969 M133.3216,86.2969 L146.3216,101.2969 " fill="none" style="stroke:#181818;stroke-width:0.5;"/><text fill="#000000" font-family="sans-serif" font-size="14" lengthAdjust="spacing" textLength="132.3232" x="67.16" y="115.792">evaluator/reviewer</text></g><!--entity Harness--><g id="elem_Harness"><ellipse cx="456.3211" cy="187.5869" fill="#F1F1F1" rx="8" ry="8" style="stroke:#181818;stroke-width:0.5;"/><path d="M456.3211,195.5869 L456.3211,222.5869 M443.3211,203.5869 L469.3211,203.5869 M456.3211,222.5869 L443.3211,237.5869 M456.3211,222.5869 L469.3211,237.5869 " fill="none" style="stroke:#181818;stroke-width:0.5;"/><text fill="#000000" font-family="sans-serif" font-size="14" lengthAdjust="spacing" textLength="55.2822" x="428.68" y="252.082">harness</text></g><g id="elem_GMN17"><path d="M428.64,450.8169 L428.64,466.9469 L383.23,470.9469 L428.64,474.9469 L428.64,491.0825 A0,0 0 0 0 428.64,491.0825 L764.0013,491.0825 A0,0 0 0 0 764.0013,491.0825 L764.0013,460.8169 L754.0013,450.8169 L428.64,450.8169 A0,0 0 0 0 428.64,450.8169 " fill="#FEFFDD" style="stroke:#181818;stroke-width:0.5;"/><path d="M754.0013,450.8169 L754.0013,460.8169 L764.0013,460.8169 L754.0013,450.8169 " fill="#FEFFDD" style="stroke:#181818;stroke-width:0.5;"/><text fill="#000000" font-family="sans-serif" font-size="13" lengthAdjust="spacing" textLength="314.3613" x="434.64" y="467.8838">Reasons may include Required Outcome failure,</text><text fill="#000000" font-family="sans-serif" font-size="13" lengthAdjust="spacing" textLength="313.5425" x="434.64" y="483.0166">quality/hard cap/timeout, or inconclusive cause.</text></g><!--link Evaluator to Select--><g id="link_Evaluator_Select"><path d="M160.62,119.3469 C176.59,141.2369 192.8728,163.5604 207.4628,183.5504 " fill="none" id="Evaluator-to-Select" style="stroke:#181818;stroke-width:1.0;"/><polygon fill="#181818" points="211,188.3969,208.9251,178.7691,208.0523,184.3582,202.4632,183.4854,211,188.3969" style="stroke:#181818;stroke-width:1.0;"/></g><!--link Select to Inspect--><g id="link_Select_Inspect"><path d="M233.7,246.2869 C235.42,266.4869 237.2414,287.8185 239.0414,308.9785 " fill="none" id="Select-to-Inspect" style="stroke:#181818;stroke-width:1.0;"/><polygon fill="#181818" points="239.55,314.9569,242.7728,305.6502,239.1262,309.9749,234.8016,306.3283,239.55,314.9569" style="stroke:#181818;stroke-width:1.0;"/></g><!--link Harness to Inspect--><g id="link_Harness_Inspect"><path d="M428.59,243.1069 C423.33,247.3969 417.77,251.6669 412.32,255.3869 C378.07,278.7569 342.6586,298.298 309.6286,315.088 " fill="none" id="Harness-to-Inspect" style="stroke:#181818;stroke-width:1.0;"/><polygon fill="#181818" points="304.28,317.8069,314.1155,317.2944,308.7372,315.5412,310.4904,310.1628,304.28,317.8069" style="stroke:#181818;stroke-width:1.0;"/></g><!--link Inspect to Violation--><g id="link_Inspect_Violation"><path d="M243.94,382.1069 C244.86,400.6369 245.7105,417.6244 246.6005,435.4344 " fill="none" id="Inspect-to-Violation" style="stroke:#181818;stroke-width:1.0;"/><polygon fill="#181818" points="246.9,441.4269,250.4458,432.2385,246.6505,436.4331,242.4558,432.6377,246.9,441.4269" style="stroke:#181818;stroke-width:1.0;"/></g><!--link Harness to Violation--><g id="link_Harness_Violation"><path d="M454.86,255.7469 C451.69,291.5469 442.04,345.2569 413.32,381.6369 C390.06,411.0869 359.7052,429.551 327.3552,443.571 " fill="none" id="Harness-to-Violation" style="stroke:#181818;stroke-width:1.0;"/><polygon fill="#181818" points="321.85,445.9569,331.6984,446.0482,326.4377,443.9686,328.5173,438.7079,321.85,445.9569" style="stroke:#181818;stroke-width:1.0;"/></g><!--link Violation to Classify--><g id="link_Violation_Classify"><path d="M246.14,500.4969 C244.76,518.4969 243.4454,535.7142 242.0554,553.9742 " fill="none" id="Violation-to-Classify" style="stroke:#181818;stroke-width:1.0;"/><polygon fill="#181818" points="241.6,559.9569,246.2716,551.2865,241.9795,554.9713,238.2947,550.6792,241.6,559.9569" style="stroke:#181818;stroke-width:1.0;"/></g><!--link Evaluator to Classify--><g id="link_Evaluator_Classify"><path d="M97.09,119.5369 C91.18,127.5469 85.85,136.3569 82.32,145.4469 C25.15,292.5469 6,370.8469 96.32,500.2569 C115.6,527.8869 141.0985,546.0153 169.1885,560.6453 " fill="none" id="Evaluator-to-Classify" style="stroke:#181818;stroke-width:1.0;"/><polygon fill="#181818" points="174.51,563.4169,168.3755,555.7118,170.0754,561.1072,164.68,562.8072,174.51,563.4169" style="stroke:#181818;stroke-width:1.0;"/></g><!--SRC=[VLBBIWGn4BpdAvezxxg2ToyYw4L5qTE2j4dFR4ksi-OnCehWH_Y5Veb9TcRS1V4MAbMLwkf4ZfRW_cnnV7m2tvzVSDwn8T44A0OQP9iyWM5inGKEIbpCLm6kr8rt9ka8TrlIWu6Yh2aCXJew3pFgq2RCnwMdZkcL_Ao8pqTuuAtH2uLGhYvsH-L9HvGsPvlzdsW6xmeW1T8OClcER5PM6Xd8tYpQYROfS4TGE3N1ZhOll9ImBSheyPbAghw-9yvlqF8RcVbAF6qjzlYKK-LypXkMjjeDuh_yycpciSL8ZnqxYv6Th8GwabZzFM5m4ghBmqZOzpcp608tFUJEE4_q5CXtD1MnaZfZI4t3ceih3NLLor6jFjHKEYmMfsC1Grq56MSODd20ZSCKx3VbFlCNdKuLdm8SFZ_1zJzvRjSHNBFdShlh1JRObnNQP0XkwIMnpxDVfwZTXiOEvkebvN9YlonbvoLlbv4tv5AS__43ShD7qqVz0G00]--></g></svg>