<svg xmlns="http://www.w3.org/2000/svg" xmlns:xlink="http://www.w3.org/1999/xlink" contentStyleType="text/css" height="620px" preserveAspectRatio="none" style="width:779px;height:620px;background:#FFFFFF;" version="1.1" viewBox="0 0 779 620" width="779px" zoomAndPan="magnify"><title>UC-003 &#8212; &#51613;&#44144;&#50752; &#49892;&#54056; &#51652;&#45800;</title><defs/><g><text fill="#000000" font-family="sans-serif" font-size="14" font-weight="bold" lengthAdjust="spacing" textLength="180.3325" x="292.7362" y="22.9951">UC-003 &#8212; &#51613;&#44144;&#50752; &#49892;&#54056; &#51652;&#45800;</text><!--cluster ??? ?? ??--><g id="cluster_&#51613;&#44144;&#50752; &#49892;&#54056; &#51652;&#45800;"><rect fill="none" height="459.54" rx="2.5" ry="2.5" style="stroke:#181818;stroke-width:1.0;" width="298" x="36.33" y="155.3469"/><text fill="#000000" font-family="sans-serif" font-size="14" font-weight="bold" lengthAdjust="spacing" textLength="99.9077" x="135.3762" y="170.342">&#51613;&#44144;&#50752; &#49892;&#54056; &#51652;&#45800;</text></g><g id="elem_Select"><ellipse cx="179.3328" cy="217.2514" fill="#F1F1F1" rx="122.4728" ry="26.8946" style="stroke:#181818;stroke-width:0.5;"/><text fill="#000000" font-family="sans-serif" font-size="14" lengthAdjust="spacing" textLength="159.8878" x="96.3889" y="212.8506">failed &#46608;&#45716; inconclusive</text><text fill="#000000" font-family="sans-serif" font-size="14" lengthAdjust="spacing" textLength="68.8499" x="141.9079" y="229.1474">&#52992;&#51060;&#49828; &#49440;&#53469;</text></g><g id="elem_Inspect"><ellipse cx="185.3255" cy="344.326" fill="#F1F1F1" rx="132.6955" ry="28.9391" style="stroke:#181818;stroke-width:0.5;"/><text fill="#000000" font-family="sans-serif" font-size="14" lengthAdjust="spacing" textLength="136.97" x="116.8404" y="339.0242">trajectory&#50752; &#51221;&#44508;&#54868;&#46108;</text><text fill="#000000" font-family="sans-serif" font-size="14" lengthAdjust="spacing" textLength="189.804" x="90.4235" y="355.3211">replay &#44032;&#45733;&#54620; recording &#44160;&#49324;</text></g><g id="elem_Violation"><ellipse cx="191.33" cy="459.5152" fill="#F1F1F1" rx="109.77" ry="26.2484" style="stroke:#181818;stroke-width:0.5;"/><text fill="#000000" font-family="sans-serif" font-size="14" lengthAdjust="spacing" textLength="137.6895" x="119.4853" y="455.1144">hard_gate_violation</text><text fill="#000000" font-family="sans-serif" font-size="14" lengthAdjust="spacing" textLength="113.1741" x="131.7429" y="471.4112">event&#50752; &#49324;&#50976; &#44160;&#49324;</text></g><g id="elem_Classify"><ellipse cx="182.3295" cy="572.3268" fill="#F1F1F1" rx="120.7995" ry="26.5599" style="stroke:#181818;stroke-width:0.5;"/><text fill="#000000" font-family="sans-serif" font-size="14" lengthAdjust="spacing" textLength="155.03" x="101.8146" y="567.9259">&#50976;&#54952;&#54616;&#44172; &#44288;&#52272;&#46108; &#49892;&#54056; &#46608;&#45716;</text><text fill="#000000" font-family="sans-serif" font-size="14" lengthAdjust="spacing" textLength="124.8199" x="116.9196" y="584.2228">&#51613;&#44144; &#48520;&#52649;&#48516;&#51004;&#47196; &#48516;&#47448;</text></g><g id="elem_N"><path d="M165.75,68.3769 L165.75,93.5097 L316.9044,93.5097 L316.9044,78.3769 L306.9044,68.3769 L165.75,68.3769 " fill="#FEFFDD" style="stroke:#181818;stroke-width:0.5;"/><path d="M306.9044,68.3769 L306.9044,78.3769 L316.9044,78.3769 L306.9044,68.3769 " fill="#FEFFDD" style="stroke:#181818;stroke-width:1.0;"/><text fill="#000000" font-family="sans-serif" font-size="13" lengthAdjust="spacing" textLength="130.1544" x="171.75" y="85.4438">Product &#47749;&#49464; UC-003</text></g><!--entity Evaluator--><g id="elem_Evaluator"><ellipse cx="89.3283" cy="51.2969" fill="#F1F1F1" rx="8" ry="8" style="stroke:#181818;stroke-width:0.5;"/><path d="M89.3283,59.2969 L89.3283,86.2969 M76.3283,67.2969 L102.3283,67.2969 M89.3283,86.2969 L76.3283,101.2969 M89.3283,86.2969 L102.3283,101.2969 " fill="none" style="stroke:#181818;stroke-width:0.5;"/><text fill="#000000" font-family="sans-serif" font-size="14" lengthAdjust="spacing" textLength="83.1165" x="47.77" y="115.792">&#54217;&#44032;&#51088;/&#44160;&#53664;&#51088;</text></g><!--entity Harness--><g id="elem_Harness"><ellipse cx="378.3311" cy="187.5969" fill="#F1F1F1" rx="8" ry="8" style="stroke:#181818;stroke-width:0.5;"/><path d="M378.3311,195.5969 L378.3311,222.5969 M365.3311,203.5969 L391.3311,203.5969 M378.3311,222.5969 L365.3311,237.5969 M378.3311,222.5969 L391.3311,237.5969 " fill="none" style="stroke:#181818;stroke-width:0.5;"/><text fill="#000000" font-family="sans-serif" font-size="14" lengthAdjust="spacing" textLength="55.2822" x="350.69" y="252.092">harness</text></g><g id="elem_GMN17"><path d="M349.86,439.3869 L349.86,455.5169 L301.53,459.5169 L349.86,463.5169 L349.86,479.6525 A0,0 0 0 0 349.86,479.6525 L772.8049,479.6525 A0,0 0 0 0 772.8049,479.6525 L772.8049,449.3869 L762.8049,439.3869 L349.86,439.3869 A0,0 0 0 0 349.86,439.3869 " fill="#FEFFDD" style="stroke:#181818;stroke-width:0.5;"/><path d="M762.8049,439.3869 L762.8049,449.3869 L772.8049,449.3869 L762.8049,439.3869 " fill="#FEFFDD" style="stroke:#181818;stroke-width:0.5;"/><text fill="#000000" font-family="sans-serif" font-size="13" lengthAdjust="spacing" textLength="206.3494" x="355.86" y="456.4538">&#49324;&#50976;&#50640;&#45716; Required Outcome &#49892;&#54056;,</text><text fill="#000000" font-family="sans-serif" font-size="13" lengthAdjust="spacing" textLength="401.9449" x="355.86" y="471.5866">quality/hard cap/timeout &#46608;&#45716; inconclusive &#50896;&#51064;&#51060; &#54252;&#54632;&#46112; &#49688; &#51080;&#45796;.</text></g><!--link Evaluator to Select--><g id="link_Evaluator_Select"><path d="M114.4,119.3569 C129.59,142.0169 145.2298,165.3626 158.7398,185.5226 " fill="none" id="Evaluator-to-Select" style="stroke:#181818;stroke-width:1.0;"/><polygon fill="#181818" points="162.08,190.5069,160.3926,180.8036,159.2965,186.3533,153.7469,185.2572,162.08,190.5069" style="stroke:#181818;stroke-width:1.0;"/></g><!--link Select to Inspect--><g id="link_Select_Inspect"><path d="M180.59,244.4669 C181.58,265.0969 182.6612,287.8038 183.6812,308.9738 " fill="none" id="Select-to-Inspect" style="stroke:#181818;stroke-width:1.0;"/><polygon fill="#181818" points="183.97,314.9669,187.5322,305.7848,183.7294,309.9727,179.5415,306.1698,183.97,314.9669" style="stroke:#181818;stroke-width:1.0;"/></g><!--link Harness to Inspect--><g id="link_Harness_Inspect"><path d="M350.49,242.9469 C345.24,247.2569 339.71,251.5769 334.33,255.3969 C302.36,278.0769 269.5122,297.5681 239.8422,314.0881 " fill="none" id="Harness-to-Inspect" style="stroke:#181818;stroke-width:1.0;"/><polygon fill="#181818" points="234.6,317.0069,244.4092,316.1235,238.9685,314.5745,240.5174,309.1339,234.6,317.0069" style="stroke:#181818;stroke-width:1.0;"/></g><!--link Inspect to Violation--><g id="link_Inspect_Violation"><path d="M186.83,373.5969 C187.79,391.8069 188.7243,409.2852 189.6543,426.9352 " fill="none" id="Inspect-to-Violation" style="stroke:#181818;stroke-width:1.0;"/><polygon fill="#181818" points="189.97,432.9269,193.4909,423.7289,189.7069,427.9338,185.502,424.1498,189.97,432.9269" style="stroke:#181818;stroke-width:1.0;"/></g><!--link Harness to Violation--><g id="link_Harness_Violation"><path d="M375.78,255.8669 C371.79,289.6369 361.56,339.0069 335.33,373.2669 C313.34,401.9869 284.1148,420.3946 254.3148,434.3346 " fill="none" id="Harness-to-Violation" style="stroke:#181818;stroke-width:1.0;"/><polygon fill="#181818" points="248.88,436.8769,258.727,436.6866,253.409,434.7583,255.3373,429.4402,248.88,436.8769" style="stroke:#181818;stroke-width:1.0;"/></g><!--link Violation to Classify--><g id="link_Violation_Classify"><path d="M189.24,486.2169 C187.8,503.9969 186.363,521.5763 184.923,539.4063 " fill="none" id="Violation-to-Classify" style="stroke:#181818;stroke-width:1.0;"/><polygon fill="#181818" points="184.44,545.3869,189.1515,536.7381,184.8425,540.4031,181.1775,536.0941,184.44,545.3869" style="stroke:#181818;stroke-width:1.0;"/></g><!--link Evaluator to Classify--><g id="link_Evaluator_Classify"><path d="M54.51,119.3369 C48.34,127.9569 42.79,137.5069 39.33,147.3469 C6,242.0869 22.69,273.6469 35.33,373.2669 C41.82,424.4969 35.27,443.0869 64.33,485.7669 C82.13,511.9069 105.5271,529.8532 130.0871,544.5032 " fill="none" id="Evaluator-to-Classify" style="stroke:#181818;stroke-width:1.0;"/><polygon fill="#181818" points="135.24,547.5769,129.5598,539.5311,130.9459,545.0155,125.4615,546.4016,135.24,547.5769" style="stroke:#181818;stroke-width:1.0;"/></g><!--SRC=[TLB1RjD04BtxAqOv4rA9EvSA2Iw0G72ALAsSJRh8NQVsEbA4aAnYK4WgrOT4fE1KHaeXe1n2LOKU-ZKSlRF_m7hZk2w2qwx7Rz-yzsO44mw55xlrdPrxy3iS0twTPJzNU1e2ZkRgU07uBPAZXSLTGO7uyDXwwhcjm1OWVxp3wAfuQr7UWXnZ4Lku7jJKoOTi5U9PtCWkGlK-rRTQ_lv1ZpW1qP02k4yyJdq___LmSxKyQWl2ErfNxJzgQl3Q0WXyQXDVezg4ERG5SXhBuHWOjrrkEu7FUhJ9yJh4sIKEvu1HgjxEZ8ZdrD4zgXJ28wzeBgXlcgMJx5UYJiSoJfhSers7z47RaSDpDKb02tIz5kCTqDxmQ6au7t6_-nUfzjRQwn11zthCTOXWBczosgDSc2P7IqpIAiNBBQfAeZ7gqq9Dfjd5CMIN8QvMMjKsZurdRTC41N8zmFLtkOumkPPV4lqToVEf8TzrYE-pTjzwOvKpW7hz_ZQCpM4gMol5G6xLYjFKRlHMaJVLycRgfO3RxSkosJ2FTVO5kEqAooOd_6Y6-umU1ipJmtuI2Dize4KETwp3W3XCz1jvvc2JRaEm0-e6ubzR0VWvnjcLtWjG9qirMSWu1HnC0Sy6SZI_Moxp7m00]--></g></svg>